<?xml version="1.0" encoding="UTF-8"?>
<svg width="100px" height="100px" viewBox="0 0 100 100" version="1.1" xmlns="http://www.w3.org/2000/svg" xmlns:xlink="http://www.w3.org/1999/xlink">
    <title>Icon/yellow_100x100</title>
    <g id="Icon/yellow_100x100" stroke="none" stroke-width="1" fill="none" fill-rule="evenodd">
        <g id="Group-7" transform="translate(8.000000, 4.000000)" fill="#FFA729">
            <path d="M84.9895,43.4430408 C84.9895,19.8728434 65.7935833,0.716146053 42.2534722,0.843625563 C20.1968611,0.965198684 1.53008333,18.5102382 0.0931666667,40.5789355 C-0.931666667,56.3650408 6.57661111,71.0651329 19.7704444,79.4491066 L19.7549167,85.605975 L5.40486111,85.6526724 L5.40486111,75.8558039 L0.0274722222,75.8558039 L0.0274722222,91.0001197 L25.1394722,91.0001197 L25.155,79.3509224 C25.1585833,77.5488829 24.2269167,75.8833434 22.6621944,74.890725 C11.8453056,68.0369882 5.38455556,56.2836197 5.38455556,43.4430408 C5.38455556,23.0015671 21.9168611,6.35934342 42.2809444,6.23840921 C62.2341389,6.12226447 78.9288889,22.1801724 79.5894167,42.1702382 C80.0313611,55.5005408 73.5085,67.8118829 62.3344722,74.890725 C60.76975,75.8833434 59.8380833,77.5488829 59.8416667,79.3509224 L59.8691389,91.0001197 L84.9703889,91.0001197 L84.9703889,75.8558039 L79.5894167,75.8558039 L79.636,85.605975 L65.2393611,85.6526724 L65.2238333,79.4443171 C77.5970833,71.5943697 84.9895,58.1395408 84.9895,43.4430408" id="Fill-5"></path>
            <path d="M42.4946306,38.1069684 C39.5598806,38.1069684 37.1721861,40.5005079 37.1721861,43.4424421 C37.1721861,46.3855737 39.5598806,48.7791132 42.4946306,48.7791132 C45.4293806,48.7791132 47.817075,46.3855737 47.817075,43.4424421 C47.817075,40.5005079 45.4293806,38.1069684 42.4946306,38.1069684" id="Fill-3"></path>
            <path d="M55.8777833,42.4468303 C57.7685889,44.2057645 59.8648389,46.3430671 61.64695,48.3702118 C65.5766722,52.8423829 66.2670611,55.6681724 65.6041444,56.8164487 C64.9710889,57.9180276 62.1127833,58.6340539 57.1665889,57.7623697 C56.3627278,57.6222776 55.5361722,57.4390803 54.6893111,57.2295408 C55.4812278,52.8974618 55.8861444,48.1606724 55.8861444,43.4394487 C55.8813667,43.1125671 55.8813667,42.7773039 55.8777833,42.4468303 M38.49145,50.3949618 C34.57845,48.1295408 31.2316167,45.7467776 28.4712556,43.4358566 C31.3785333,41.0063961 34.7803111,38.6403961 38.49145,36.4923171 C42.2037833,34.3430408 45.9459778,32.5721329 49.4982556,31.2646066 C50.1193667,34.8183961 50.5003944,38.9169882 50.5003944,43.4430408 C50.5003944,47.9690934 50.1193667,52.072475 49.4982556,55.621475 C45.9459778,54.3139487 42.2037833,52.5430408 38.49145,50.3949618 M32.4618944,56.6368434 C24.9763111,59.2566855 20.2355611,58.2916066 19.3851167,56.8164487 C18.7520611,55.7148697 19.5559222,52.8771066 22.7868944,49.0167908 C23.3100611,48.3905671 23.8810056,47.7595539 24.4865889,47.1333303 C27.8334222,49.9854618 31.7237278,52.7022908 35.8003667,55.0646987 C35.9018944,55.1233697 36.0070056,55.1820408 36.1073389,55.2407118 C34.6560889,55.8166461 33.2657556,56.3566592 32.4618944,56.6368434 M36.0452278,28.6100408 C36.5851167,26.2009355 37.2993944,23.9905934 37.2993944,23.9905934 C39.05045,18.9508697 41.1705889,16.6926329 42.4940333,16.6926329 C44.29645,16.6926329 46.6172556,20.1027382 48.2990333,25.9674487 C44.2498667,27.4078829 39.9904778,29.3931197 35.8003667,31.8177908 C35.6343389,31.9147776 35.4707,32.0117645 35.3082556,32.1099487 C35.5447556,30.9101855 35.7932,29.7427513 36.0452278,28.6100408 M61.2157556,63.5576329 C66.6397278,63.5576329 69.1253667,61.490975 70.2624778,59.5141197 C72.4530889,55.7112776 70.9146444,50.7601592 65.6853667,44.8056461 C62.7888389,41.5092908 58.4207556,37.1963697 55.45495,35.0518829 C55.2638389,33.2031461 55.0082278,31.392725 54.6893111,29.6493566 C55.5361722,29.4398171 56.3675056,29.2602118 57.1665889,29.1165276 C62.1127833,28.2412513 64.9710889,28.9608697 65.6041444,30.0624487 C66.0305611,30.8060145 65.7044778,32.3470276 64.7071167,34.2927513 C63.8530889,35.9630803 63.0802833,36.8886461 62.8354222,37.1616461 C64.3762556,38.5434092 65.7701722,39.9874355 66.6672,40.9525145 C67.1222833,40.469975 68.2785056,39.1265276 69.49445,36.7605276 C71.4270611,32.9924092 71.68745,29.8325539 70.2660611,27.3647776 C68.8267556,24.8622776 65.2231167,22.2160934 56.2349222,23.8038039 C55.3378944,23.9630539 54.4145889,24.1618171 53.4745611,24.3953039 C51.2732,16.7237645 47.5883389,11.2948961 42.4988111,11.2948961 C39.5401722,11.2948961 35.3548389,13.1903303 32.2062833,22.2627908 C32.1752278,22.3633697 31.4024222,24.7413434 30.8004222,27.4234487 C30.1864778,30.1522513 29.6155333,33.0822118 29.0995333,36.1450803 C27.4691167,37.3173039 25.9318667,38.5194618 24.5021167,39.741975 C20.2666167,35.351225 18.4845056,31.6310013 19.3851167,30.0660408 C19.9285889,29.1237118 21.6330611,28.3418303 24.21545,28.7154092 C25.7025333,28.9297382 26.6998944,29.1668171 27.1275056,29.2793697 C27.5228667,27.2438434 28.0472278,25.3017118 28.4127278,24.0408829 C27.7868389,23.8816329 26.6342,23.6170145 24.9834778,23.3751461 C20.4493667,22.7213829 16.5196444,24.2516197 14.7267833,27.3683697 C12.1790333,31.7902513 15.0253944,37.7064487 20.5544778,43.4514224 C19.8820056,44.1518829 19.2453667,44.8523434 18.6636722,45.5528039 C12.8001444,52.5621987 13.2862833,57.0152118 14.7267833,59.5141197 C16.3225611,62.2812382 19.6228111,63.7013171 24.0171722,63.7013171 C26.9877556,63.7013171 30.4623944,63.0511461 34.2404222,61.7280539 C36.0535889,61.0934487 40.3786722,59.3428961 42.4211722,58.5059355 C44.4087278,59.4243171 46.3771722,60.2301461 48.2990333,60.9150408 C46.6172556,66.7797513 44.29645,70.1898566 42.4940333,70.1898566 C41.0654778,70.1898566 39.3454778,68.0956592 37.9981444,64.721475 C37.9443944,64.584975 37.8512278,64.311975 37.7497,64.0126329 C35.9257833,64.7334487 34.0421444,65.3165671 32.6446444,65.7176855 C32.7652833,66.0828829 32.8966722,66.4684355 33.0017833,66.7258697 C35.9257833,74.0465803 39.7766722,75.5840013 42.4940333,75.5840013 C47.5883389,75.5840013 51.2732,70.1551329 53.4709778,62.4835934 C54.4145889,62.7170803 55.3343111,62.9158434 56.2313389,63.0750934 C58.1221444,63.4091592 59.7716722,63.5576329 61.2157556,63.5576329" id="Fill-1"></path>
        </g>
    </g>
</svg>