<?xml version="1.0" encoding="UTF-8"?>
<svg width="294px" height="348px" viewBox="0 0 294 348" version="1.1" xmlns="http://www.w3.org/2000/svg" xmlns:xlink="http://www.w3.org/1999/xlink">
    <!-- Generator: Sketch 52.5 (67469) - http://www.bohemiancoding.com/sketch -->
    <title>Group</title>
    <desc>Created with Sketch.</desc>
    <g id="Page-1" stroke="none" stroke-width="1" fill="none" fill-rule="evenodd">
        <g id="Group" fill="#FFFFFF">
            <path d="M287.774987,194.963029 C284.777783,194.963029 282.34527,197.395542 282.34527,200.392746 L282.34527,216.681896 L211.925464,216.681896 L211.787911,206.387153 C242.078491,185.146101 260.11963,150.591384 260.11963,113.517278 C260.11963,50.9307429 209.188887,-1.26493304e-13 146.602352,-1.26493304e-13 C84.0158169,-1.26493304e-13 33.085074,50.9307429 33.085074,113.517278 C33.085074,150.417633 51.1044939,185.117142 81.2792397,206.358194 C81.329917,206.387153 81.3588755,206.387153 81.4167925,206.416111 L81.2792397,216.681896 L10.8594335,216.681896 L10.8594335,200.392746 C10.8594335,197.395542 8.42692037,194.963029 5.42971673,194.963029 C2.4325131,194.963029 0,197.395542 0,200.392746 L0,227.541329 L91.9938807,227.541329 L92.3051844,203.983598 C92.3341429,201.666919 90.8934581,199.712221 88.8808431,198.894144 C88.518862,198.358412 88.0917243,197.844398 87.5270337,197.453459 C60.2336576,178.246741 43.9445074,146.884697 43.9445074,113.488319 C43.9445074,56.8744729 89.9885053,10.830475 146.602352,10.830475 C203.216198,10.830475 249.260196,56.8744729 249.260196,113.488319 C249.260196,147.652097 232.377397,179.434039 204.070474,198.553881 C203.527502,198.894144 203.136562,199.371959 202.767342,199.857013 C201.609002,200.870561 200.841602,202.311245 200.870561,203.95464 L201.181864,227.512371 L293.204704,227.541329 L293.204704,200.392746 C293.204704,197.395542 290.77219,194.963029 287.774987,194.963029 Z" id="Page-1"></path>
            <g id="Page-1" transform="translate(65.000000, 22.000000)">
                <path d="M150.23428,99.3708947 C148.049102,96.6581053 145.618399,93.9453158 142.996732,91.2434211 C145.618399,88.5415263 148.03819,85.8178421 150.23428,83.1159474 C162.327777,68.1465789 166.078862,54.8876842 160.805519,45.7715132 C156.797996,38.8451842 148.111848,35.1845526 135.699167,35.1845526 C128.780802,35.1845526 120.885792,36.3339474 112.434257,38.4611447 C105.742321,15.2253947 94.6718467,0.285986842 81.9154301,0.285986842 C69.1481013,0.285986842 58.085811,15.2253947 51.3938756,38.4611447 C42.9341562,36.3339474 35.0473298,35.1845526 28.1207811,35.1845526 C15.69446,35.1845526 7.02195178,38.8451842 3.01442912,45.7715132 C-2.26164224,54.8876842 1.50035487,68.15475 13.5856683,83.1159474 C15.781758,85.8287368 18.2097329,88.5524211 20.8423124,91.2761053 C4.03745227,108.669553 -3.36923529,125.692579 3.00351688,136.726224 C7.01103954,143.652553 15.6835477,147.313184 28.1098689,147.313184 C35.0255053,147.313184 42.923244,146.163789 51.3829634,144.036592 C58.0667146,167.272342 69.137189,182.209026 81.8936056,182.209026 C94.6609344,182.209026 105.720497,167.272342 112.412432,144.036592 C120.874879,146.163789 128.772618,147.313184 135.688255,147.313184 C148.100935,147.313184 156.787084,143.652553 160.794607,136.726224 C166.078862,127.610053 162.327777,114.340263 150.23428,99.3708947 Z M135.699167,41.9501842 C142.571154,41.9501842 151.491916,43.1949079 154.932002,49.1543289 C158.653078,55.5795 155.008388,66.4115921 144.958208,78.8588289 C142.90125,81.40275 140.631502,83.9439474 138.170791,86.4987632 C132.278177,80.9560658 125.553505,75.5195921 118.209563,70.3255263 C117.36932,61.2611053 115.983465,52.7495921 114.139295,44.9952632 C121.993385,43.0151447 129.315502,41.9501842 135.699167,41.9501842 Z M97.1434706,117.586895 C92.080188,120.501237 86.9759846,123.173171 81.9154301,125.586355 C76.8412353,123.162276 71.7479441,120.501237 66.6764773,117.576 C61.6022825,114.650763 56.7217801,111.575724 52.0868033,108.405355 C51.6721379,102.925303 51.4484368,97.2028421 51.4484368,91.2325263 C51.4484368,85.2540395 51.6830501,79.5179605 52.0868033,74.0406316 C56.6372102,70.9438026 61.4958881,67.8796579 66.6764773,64.8890526 C71.7479441,61.9638158 76.8412353,59.3027763 81.9154301,56.8895921 C86.9868968,59.3027763 92.080188,61.9747105 97.1543828,64.8890526 C102.22585,67.8142895 107.106352,70.8893289 111.752241,74.0596974 C112.169635,79.53975 112.393336,85.2649342 112.393336,91.2325263 C112.393336,97.2028421 112.169635,102.925303 111.752241,108.405355 C107.09544,111.597513 102.214937,114.661658 97.1434706,117.586895 Z M110.901086,117.107526 C110.101764,123.788724 109.013267,130.012342 107.681973,135.715737 C101.939403,133.972579 95.9704041,131.801803 89.8977387,129.206132 C93.4551311,127.394882 97.0043394,125.491026 100.531723,123.448263 C104.080932,121.4055 107.542842,119.289197 110.901086,117.107526 Z M73.9331215,129.214303 C67.8577281,131.801803 61.8914571,133.98075 56.1461591,135.726632 C54.814865,130.023237 53.7290964,123.799618 52.9297743,117.118421 C56.2852903,119.289197 59.7390164,121.416395 63.2882247,123.459158 C66.8156085,125.491026 70.373001,127.405776 73.9331215,129.214303 Z M44.9802025,103.320237 C39.7150434,99.3708947 34.834541,95.3071579 30.4450897,91.1889474 C34.7281466,87.1905789 39.5759122,83.1350132 44.9802025,79.1039605 C44.7674137,83.0614737 44.650107,87.1034211 44.650107,91.2325263 C44.6582912,95.3507368 44.7755979,99.3708947 44.9802025,103.320237 Z M52.9188621,65.3793158 C53.7181842,58.6981184 54.8039527,52.4745 56.1379749,46.7711053 C61.8805448,48.5060921 67.8468158,50.6850395 73.9222093,53.2725395 C70.3620887,55.0810658 66.8156085,56.9958158 63.2773124,59.0276842 C59.7062797,61.0922368 56.2525535,63.2194342 52.9188621,65.3793158 Z M89.8977387,53.2725395 C95.9704041,50.6850395 101.939403,48.5060921 107.681973,46.7602105 C109.002355,52.4636053 110.101764,58.6872237 110.901086,65.3684211 C107.542842,63.1976447 104.091844,61.0704474 100.542635,59.0276842 C97.0043394,56.9958158 93.4442189,55.0810658 89.8977387,53.2725395 Z M118.850658,79.1666053 C124.093992,83.1050526 128.95267,87.147 133.331209,91.2434211 C128.95267,95.3398421 124.093992,99.3926842 118.850658,103.320237 C119.052534,99.3708947 119.169841,95.3507368 119.169841,91.2434211 C119.169841,87.1361053 119.052534,83.1159474 118.850658,79.1666053 Z M81.9154301,7.06523684 C90.7925429,7.06523684 100.051584,19.3953553 105.998759,40.2369868 C98.2510636,42.5684605 90.1296239,45.6652895 81.9154301,49.4294211 C73.6985082,45.6652895 65.5770685,42.5684605 57.8321013,40.2369868 C63.7765477,19.3953553 73.027405,7.06523684 81.9154301,7.06523684 Z M8.88521794,49.1543289 C12.3280318,43.2058026 21.2460656,41.9501842 28.1207811,41.9501842 C34.5044455,41.9501842 41.8238351,43.0151447 49.6779248,44.9952632 C47.8364831,52.7386974 46.46154,61.2502105 45.6076567,70.3255263 C38.1600482,75.5931316 31.4681128,81.0405 25.6600694,86.5096579 C23.1857175,83.9548421 20.9159701,81.40275 18.8590116,78.8588289 C8.81156027,66.4115921 5.17778206,55.5795 8.88521794,49.1543289 Z M28.1207811,140.536658 C21.2460656,140.536658 12.3280318,139.291934 8.88521794,133.343408 C4.45211765,125.662618 10.5165988,111.510355 25.6055082,95.9472237 C31.519946,101.500816 38.2555304,106.96725 45.6185689,112.172211 C46.46154,121.236632 47.8446673,129.748145 49.688837,137.502474 C41.8238351,139.460803 34.5044455,140.536658 28.1207811,140.536658 Z M81.9154301,175.421605 C73.0383173,175.421605 63.7765477,163.091487 57.8321013,142.258026 C65.5770685,139.929276 73.6985082,136.832447 81.9154301,133.065592 C90.1296239,136.832447 98.2510636,139.929276 105.998759,142.249855 C100.040672,163.091487 90.7925429,175.421605 81.9154301,175.421605 Z M154.932002,133.332513 C151.491916,139.281039 142.571154,140.536658 135.699167,140.536658 C129.315502,140.536658 121.993385,139.471697 114.139295,137.491579 C115.983465,129.73725 117.358408,121.225737 118.209563,112.161316 C125.553505,106.96725 132.278177,101.519882 138.170791,95.9880789 C140.631502,98.532 142.90125,101.084092 144.958208,103.628013 C155.0193,116.07525 158.653078,126.907342 154.932002,133.332513 Z" id="Fill-1"></path>
                <path d="M81.9154301,65.5073289 C67.6995005,65.5073289 56.1379749,77.0503026 56.1379749,91.2434211 C56.1379749,105.436539 67.6995005,116.990408 81.9154301,116.990408 C96.1313597,116.990408 107.692885,105.447434 107.692885,91.2434211 C107.692885,77.0503026 96.1313597,65.5073289 81.9154301,65.5073289 Z M81.9154301,110.213882 C71.4396731,110.213882 62.9144802,101.702368 62.9144802,91.2434211 C62.9144802,80.7844737 71.4396731,72.2729605 81.9154301,72.2729605 C92.3911871,72.2729605 100.91638,80.7844737 100.91638,91.2434211 C100.905468,101.702368 92.3911871,110.213882 81.9154301,110.213882 Z" id="Fill-2"></path>
            </g>
            <path d="M80.638,330.342 C67.9499366,330.342 59.105025,326.926034 54.103,320.094 C49.100975,313.261966 46.6,302.465074 46.6,287.703 C46.6,272.940926 49.1416413,261.981369 54.225,254.824 C59.3083588,247.666631 68.112604,244.088 80.638,244.088 C93.163396,244.088 101.947308,247.646298 106.99,254.763 C112.032692,261.879702 114.554,272.839259 114.554,287.642 C114.554,297.402049 113.51701,305.291303 111.443,311.31 C109.36899,317.328697 105.973357,321.923984 101.256,325.096 L111.504,341.566 L98.938,347.422 L88.08,329.61 C86.5346589,330.098002 84.0540171,330.342 80.638,330.342 Z M64.778,311.432 C67.5433472,316.149357 72.829961,318.508 80.638,318.508 C88.446039,318.508 93.7123197,316.16969 96.437,311.493 C99.1616803,306.81631 100.524,298.906722 100.524,287.764 C100.524,276.621278 99.121014,268.528692 96.315,263.486 C93.508986,258.443308 88.2833716,255.922 80.638,255.922 C72.9926284,255.922 67.7466809,258.443308 64.9,263.486 C62.0533191,268.528692 60.63,276.580611 60.63,287.642 C60.63,298.703389 62.0126528,306.633309 64.778,311.432 Z M143.834,299.232 L143.834,329 L130.292,329 L130.292,245.43 L162.012,245.43 C180.881428,245.43 190.316,254.295245 190.316,272.026 C190.316,283.900726 185.761379,291.952646 176.652,296.182 L190.438,329 L175.554,329 L163.476,299.232 L143.834,299.232 Z M176.408,272.148 C176.408,262.14395 171.609381,257.142 162.012,257.142 L143.834,257.142 L143.834,287.52 L162.256,287.52 C167.136024,287.52 170.714655,286.117014 172.992,283.311 C175.269345,280.504986 176.408,276.784023 176.408,272.148 Z M252.536,329 L205.688,329 L205.688,245.43 L219.23,245.43 L219.23,316.922 L252.536,316.922 L252.536,329 Z" id="QRL"></path>
        </g>
    </g>
</svg>